<mxfile host="app.diagrams.net" agent="Mozilla/5.0 (X11; Linux x86_64) AppleWebKit/537.36 (KHTML, like Gecko) Chrome/130.0.0.0 Safari/537.36" version="24.8.4">
  <diagram id="R2lEEEUBdFMjLlhIrx00" name="Page-1">
    <mxGraphModel dx="1364" dy="756" grid="1" gridSize="10" guides="1" tooltips="1" connect="1" arrows="1" fold="1" page="1" pageScale="1" pageWidth="850" pageHeight="1100" math="0" shadow="0" extFonts="Permanent Marker^https://fonts.googleapis.com/css?family=Permanent+Marker">
      <root>
        <mxCell id="0" />
        <mxCell id="1" parent="0" />
        <mxCell id="C-vyLk0tnHw3VtMMgP7b-2" value="Team_Details" style="shape=table;startSize=30;container=1;collapsible=1;childLayout=tableLayout;fixedRows=1;rowLines=0;fontStyle=1;align=center;resizeLast=1;fillColor=#fad9d5;strokeColor=#ae4132;rounded=1;" parent="1" vertex="1">
          <mxGeometry x="370" y="340" width="250" height="130" as="geometry" />
        </mxCell>
        <mxCell id="JTSTbxvyxugnXNZ_vFue-30" value="" style="shape=partialRectangle;collapsible=0;dropTarget=0;pointerEvents=0;fillColor=none;points=[[0,0.5],[1,0.5]];portConstraint=eastwest;top=0;left=0;right=0;bottom=1;rounded=1;" vertex="1" parent="C-vyLk0tnHw3VtMMgP7b-2">
          <mxGeometry y="30" width="250" height="30" as="geometry" />
        </mxCell>
        <mxCell id="JTSTbxvyxugnXNZ_vFue-31" value="FK1" style="shape=partialRectangle;overflow=hidden;connectable=0;fillColor=none;top=0;left=0;bottom=0;right=0;fontStyle=1;rounded=1;" vertex="1" parent="JTSTbxvyxugnXNZ_vFue-30">
          <mxGeometry width="30" height="30" as="geometry">
            <mxRectangle width="30" height="30" as="alternateBounds" />
          </mxGeometry>
        </mxCell>
        <mxCell id="JTSTbxvyxugnXNZ_vFue-32" value="team_id int NOT NULL" style="shape=partialRectangle;overflow=hidden;connectable=0;fillColor=none;top=0;left=0;bottom=0;right=0;align=left;spacingLeft=6;fontStyle=5;rounded=1;" vertex="1" parent="JTSTbxvyxugnXNZ_vFue-30">
          <mxGeometry x="30" width="220" height="30" as="geometry">
            <mxRectangle width="220" height="30" as="alternateBounds" />
          </mxGeometry>
        </mxCell>
        <mxCell id="C-vyLk0tnHw3VtMMgP7b-3" value="" style="shape=partialRectangle;collapsible=0;dropTarget=0;pointerEvents=0;fillColor=none;points=[[0,0.5],[1,0.5]];portConstraint=eastwest;top=0;left=0;right=0;bottom=1;rounded=1;" parent="C-vyLk0tnHw3VtMMgP7b-2" vertex="1">
          <mxGeometry y="60" width="250" height="30" as="geometry" />
        </mxCell>
        <mxCell id="C-vyLk0tnHw3VtMMgP7b-4" value="FK2" style="shape=partialRectangle;overflow=hidden;connectable=0;fillColor=none;top=0;left=0;bottom=0;right=0;fontStyle=1;rounded=1;" parent="C-vyLk0tnHw3VtMMgP7b-3" vertex="1">
          <mxGeometry width="30" height="30" as="geometry">
            <mxRectangle width="30" height="30" as="alternateBounds" />
          </mxGeometry>
        </mxCell>
        <mxCell id="C-vyLk0tnHw3VtMMgP7b-5" value="user_id int NOT NULL" style="shape=partialRectangle;overflow=hidden;connectable=0;fillColor=none;top=0;left=0;bottom=0;right=0;align=left;spacingLeft=6;fontStyle=5;rounded=1;" parent="C-vyLk0tnHw3VtMMgP7b-3" vertex="1">
          <mxGeometry x="30" width="220" height="30" as="geometry">
            <mxRectangle width="220" height="30" as="alternateBounds" />
          </mxGeometry>
        </mxCell>
        <mxCell id="C-vyLk0tnHw3VtMMgP7b-6" value="" style="shape=partialRectangle;collapsible=0;dropTarget=0;pointerEvents=0;fillColor=none;points=[[0,0.5],[1,0.5]];portConstraint=eastwest;top=0;left=0;right=0;bottom=0;rounded=1;" parent="C-vyLk0tnHw3VtMMgP7b-2" vertex="1">
          <mxGeometry y="90" width="250" height="30" as="geometry" />
        </mxCell>
        <mxCell id="C-vyLk0tnHw3VtMMgP7b-7" value="FK3" style="shape=partialRectangle;overflow=hidden;connectable=0;fillColor=none;top=0;left=0;bottom=0;right=0;rounded=1;" parent="C-vyLk0tnHw3VtMMgP7b-6" vertex="1">
          <mxGeometry width="30" height="30" as="geometry">
            <mxRectangle width="30" height="30" as="alternateBounds" />
          </mxGeometry>
        </mxCell>
        <mxCell id="C-vyLk0tnHw3VtMMgP7b-8" value="role_id int NOT NULL" style="shape=partialRectangle;overflow=hidden;connectable=0;fillColor=none;top=0;left=0;bottom=0;right=0;align=left;spacingLeft=6;rounded=1;" parent="C-vyLk0tnHw3VtMMgP7b-6" vertex="1">
          <mxGeometry x="30" width="220" height="30" as="geometry">
            <mxRectangle width="220" height="30" as="alternateBounds" />
          </mxGeometry>
        </mxCell>
        <mxCell id="C-vyLk0tnHw3VtMMgP7b-13" value="Teams" style="shape=table;startSize=30;container=1;collapsible=1;childLayout=tableLayout;fixedRows=1;rowLines=0;fontStyle=1;align=center;resizeLast=1;fillColor=#fad9d5;strokeColor=#ae4132;resizeLastRow=0;rounded=1;" parent="1" vertex="1">
          <mxGeometry x="520" y="110" width="240" height="90" as="geometry" />
        </mxCell>
        <mxCell id="C-vyLk0tnHw3VtMMgP7b-14" value="" style="shape=partialRectangle;collapsible=0;dropTarget=0;pointerEvents=0;fillColor=none;points=[[0,0.5],[1,0.5]];portConstraint=eastwest;top=0;left=0;right=0;bottom=1;rounded=1;" parent="C-vyLk0tnHw3VtMMgP7b-13" vertex="1">
          <mxGeometry y="30" width="240" height="30" as="geometry" />
        </mxCell>
        <mxCell id="C-vyLk0tnHw3VtMMgP7b-15" value="PK" style="shape=partialRectangle;overflow=hidden;connectable=0;fillColor=none;top=0;left=0;bottom=0;right=0;fontStyle=1;rounded=1;" parent="C-vyLk0tnHw3VtMMgP7b-14" vertex="1">
          <mxGeometry width="30" height="30" as="geometry">
            <mxRectangle width="30" height="30" as="alternateBounds" />
          </mxGeometry>
        </mxCell>
        <mxCell id="C-vyLk0tnHw3VtMMgP7b-16" value="team_id serial NOT NULL " style="shape=partialRectangle;overflow=hidden;connectable=0;fillColor=none;top=0;left=0;bottom=0;right=0;align=left;spacingLeft=6;fontStyle=5;rounded=1;" parent="C-vyLk0tnHw3VtMMgP7b-14" vertex="1">
          <mxGeometry x="30" width="210" height="30" as="geometry">
            <mxRectangle width="210" height="30" as="alternateBounds" />
          </mxGeometry>
        </mxCell>
        <mxCell id="C-vyLk0tnHw3VtMMgP7b-17" value="" style="shape=partialRectangle;collapsible=0;dropTarget=0;pointerEvents=0;fillColor=none;points=[[0,0.5],[1,0.5]];portConstraint=eastwest;top=0;left=0;right=0;bottom=0;rounded=1;" parent="C-vyLk0tnHw3VtMMgP7b-13" vertex="1">
          <mxGeometry y="60" width="240" height="30" as="geometry" />
        </mxCell>
        <mxCell id="C-vyLk0tnHw3VtMMgP7b-18" value="" style="shape=partialRectangle;overflow=hidden;connectable=0;fillColor=none;top=0;left=0;bottom=0;right=0;rounded=1;" parent="C-vyLk0tnHw3VtMMgP7b-17" vertex="1">
          <mxGeometry width="30" height="30" as="geometry">
            <mxRectangle width="30" height="30" as="alternateBounds" />
          </mxGeometry>
        </mxCell>
        <mxCell id="C-vyLk0tnHw3VtMMgP7b-19" value="team_name text" style="shape=partialRectangle;overflow=hidden;connectable=0;fillColor=none;top=0;left=0;bottom=0;right=0;align=left;spacingLeft=6;rounded=1;" parent="C-vyLk0tnHw3VtMMgP7b-17" vertex="1">
          <mxGeometry x="30" width="210" height="30" as="geometry">
            <mxRectangle width="210" height="30" as="alternateBounds" />
          </mxGeometry>
        </mxCell>
        <mxCell id="C-vyLk0tnHw3VtMMgP7b-23" value="Users" style="shape=table;startSize=50;container=1;collapsible=1;childLayout=tableLayout;fixedRows=1;rowLines=1;fontStyle=1;align=center;resizeLast=1;fillColor=#fad9d5;strokeColor=#ae4132;resizeLastRow=1;rounded=1;" parent="1" vertex="1">
          <mxGeometry x="60" y="120" width="250" height="190" as="geometry" />
        </mxCell>
        <mxCell id="C-vyLk0tnHw3VtMMgP7b-24" value="" style="shape=partialRectangle;collapsible=0;dropTarget=0;pointerEvents=0;fillColor=none;points=[[0,0.5],[1,0.5]];portConstraint=eastwest;top=0;left=0;right=0;bottom=1;rounded=1;" parent="C-vyLk0tnHw3VtMMgP7b-23" vertex="1">
          <mxGeometry y="50" width="250" height="30" as="geometry" />
        </mxCell>
        <mxCell id="C-vyLk0tnHw3VtMMgP7b-25" value="PK" style="shape=partialRectangle;overflow=hidden;connectable=0;fillColor=none;top=0;left=0;bottom=0;right=0;fontStyle=1;rounded=1;" parent="C-vyLk0tnHw3VtMMgP7b-24" vertex="1">
          <mxGeometry width="30" height="30" as="geometry">
            <mxRectangle width="30" height="30" as="alternateBounds" />
          </mxGeometry>
        </mxCell>
        <mxCell id="C-vyLk0tnHw3VtMMgP7b-26" value="user_id serial NOT NULL" style="shape=partialRectangle;overflow=hidden;connectable=0;fillColor=none;top=0;left=0;bottom=0;right=0;align=left;spacingLeft=6;fontStyle=5;rounded=1;" parent="C-vyLk0tnHw3VtMMgP7b-24" vertex="1">
          <mxGeometry x="30" width="220" height="30" as="geometry">
            <mxRectangle width="220" height="30" as="alternateBounds" />
          </mxGeometry>
        </mxCell>
        <mxCell id="C-vyLk0tnHw3VtMMgP7b-27" value="" style="shape=partialRectangle;collapsible=0;dropTarget=0;pointerEvents=0;fillColor=none;points=[[0,0.5],[1,0.5]];portConstraint=eastwest;top=0;left=0;right=0;bottom=0;rounded=1;" parent="C-vyLk0tnHw3VtMMgP7b-23" vertex="1">
          <mxGeometry y="80" width="250" height="30" as="geometry" />
        </mxCell>
        <mxCell id="C-vyLk0tnHw3VtMMgP7b-28" value="" style="shape=partialRectangle;overflow=hidden;connectable=0;fillColor=none;top=0;left=0;bottom=0;right=0;rounded=1;" parent="C-vyLk0tnHw3VtMMgP7b-27" vertex="1">
          <mxGeometry width="30" height="30" as="geometry">
            <mxRectangle width="30" height="30" as="alternateBounds" />
          </mxGeometry>
        </mxCell>
        <mxCell id="C-vyLk0tnHw3VtMMgP7b-29" value="user_name text NOT NULL" style="shape=partialRectangle;overflow=hidden;connectable=0;fillColor=none;top=0;left=0;bottom=0;right=0;align=left;spacingLeft=6;rounded=1;" parent="C-vyLk0tnHw3VtMMgP7b-27" vertex="1">
          <mxGeometry x="30" width="220" height="30" as="geometry">
            <mxRectangle width="220" height="30" as="alternateBounds" />
          </mxGeometry>
        </mxCell>
        <mxCell id="JTSTbxvyxugnXNZ_vFue-21" value="" style="shape=partialRectangle;collapsible=0;dropTarget=0;pointerEvents=0;fillColor=none;points=[[0,0.5],[1,0.5]];portConstraint=eastwest;top=0;left=0;right=0;bottom=0;rounded=1;" vertex="1" parent="C-vyLk0tnHw3VtMMgP7b-23">
          <mxGeometry y="110" width="250" height="30" as="geometry" />
        </mxCell>
        <mxCell id="JTSTbxvyxugnXNZ_vFue-22" value="" style="shape=partialRectangle;overflow=hidden;connectable=0;fillColor=none;top=0;left=0;bottom=0;right=0;rounded=1;" vertex="1" parent="JTSTbxvyxugnXNZ_vFue-21">
          <mxGeometry width="30" height="30" as="geometry">
            <mxRectangle width="30" height="30" as="alternateBounds" />
          </mxGeometry>
        </mxCell>
        <mxCell id="JTSTbxvyxugnXNZ_vFue-23" value="password text NOT NULL" style="shape=partialRectangle;overflow=hidden;connectable=0;fillColor=none;top=0;left=0;bottom=0;right=0;align=left;spacingLeft=6;rounded=1;" vertex="1" parent="JTSTbxvyxugnXNZ_vFue-21">
          <mxGeometry x="30" width="220" height="30" as="geometry">
            <mxRectangle width="220" height="30" as="alternateBounds" />
          </mxGeometry>
        </mxCell>
        <mxCell id="JTSTbxvyxugnXNZ_vFue-24" value="" style="shape=partialRectangle;collapsible=0;dropTarget=0;pointerEvents=0;fillColor=none;points=[[0,0.5],[1,0.5]];portConstraint=eastwest;top=0;left=0;right=0;bottom=0;rounded=1;" vertex="1" parent="C-vyLk0tnHw3VtMMgP7b-23">
          <mxGeometry y="140" width="250" height="50" as="geometry" />
        </mxCell>
        <mxCell id="JTSTbxvyxugnXNZ_vFue-25" value="" style="shape=partialRectangle;overflow=hidden;connectable=0;fillColor=none;top=0;left=0;bottom=0;right=0;rounded=1;" vertex="1" parent="JTSTbxvyxugnXNZ_vFue-24">
          <mxGeometry width="30" height="50" as="geometry">
            <mxRectangle width="30" height="50" as="alternateBounds" />
          </mxGeometry>
        </mxCell>
        <mxCell id="JTSTbxvyxugnXNZ_vFue-26" value="role_id int" style="shape=partialRectangle;overflow=hidden;connectable=0;fillColor=none;top=0;left=0;bottom=0;right=0;align=left;spacingLeft=6;rounded=1;" vertex="1" parent="JTSTbxvyxugnXNZ_vFue-24">
          <mxGeometry x="30" width="220" height="50" as="geometry">
            <mxRectangle width="220" height="50" as="alternateBounds" />
          </mxGeometry>
        </mxCell>
        <mxCell id="JTSTbxvyxugnXNZ_vFue-1" value="Role" style="shape=table;startSize=30;container=1;collapsible=1;childLayout=tableLayout;fixedRows=1;rowLines=0;fontStyle=1;align=center;resizeLast=1;fillColor=#fad9d5;strokeColor=#ae4132;rounded=1;" vertex="1" parent="1">
          <mxGeometry x="80" y="580" width="250" height="100" as="geometry" />
        </mxCell>
        <mxCell id="JTSTbxvyxugnXNZ_vFue-2" value="" style="shape=partialRectangle;collapsible=0;dropTarget=0;pointerEvents=0;fillColor=none;points=[[0,0.5],[1,0.5]];portConstraint=eastwest;top=0;left=0;right=0;bottom=1;rounded=1;" vertex="1" parent="JTSTbxvyxugnXNZ_vFue-1">
          <mxGeometry y="30" width="250" height="30" as="geometry" />
        </mxCell>
        <mxCell id="JTSTbxvyxugnXNZ_vFue-3" value="PK" style="shape=partialRectangle;overflow=hidden;connectable=0;fillColor=none;top=0;left=0;bottom=0;right=0;fontStyle=1;rounded=1;" vertex="1" parent="JTSTbxvyxugnXNZ_vFue-2">
          <mxGeometry width="30" height="30" as="geometry">
            <mxRectangle width="30" height="30" as="alternateBounds" />
          </mxGeometry>
        </mxCell>
        <mxCell id="JTSTbxvyxugnXNZ_vFue-4" value="role_id int NOT NULL " style="shape=partialRectangle;overflow=hidden;connectable=0;fillColor=none;top=0;left=0;bottom=0;right=0;align=left;spacingLeft=6;fontStyle=5;rounded=1;" vertex="1" parent="JTSTbxvyxugnXNZ_vFue-2">
          <mxGeometry x="30" width="220" height="30" as="geometry">
            <mxRectangle width="220" height="30" as="alternateBounds" />
          </mxGeometry>
        </mxCell>
        <mxCell id="JTSTbxvyxugnXNZ_vFue-5" value="" style="shape=partialRectangle;collapsible=0;dropTarget=0;pointerEvents=0;fillColor=none;points=[[0,0.5],[1,0.5]];portConstraint=eastwest;top=0;left=0;right=0;bottom=0;rounded=1;" vertex="1" parent="JTSTbxvyxugnXNZ_vFue-1">
          <mxGeometry y="60" width="250" height="30" as="geometry" />
        </mxCell>
        <mxCell id="JTSTbxvyxugnXNZ_vFue-6" value="" style="shape=partialRectangle;overflow=hidden;connectable=0;fillColor=none;top=0;left=0;bottom=0;right=0;rounded=1;" vertex="1" parent="JTSTbxvyxugnXNZ_vFue-5">
          <mxGeometry width="30" height="30" as="geometry">
            <mxRectangle width="30" height="30" as="alternateBounds" />
          </mxGeometry>
        </mxCell>
        <mxCell id="JTSTbxvyxugnXNZ_vFue-7" value="role_name text" style="shape=partialRectangle;overflow=hidden;connectable=0;fillColor=none;top=0;left=0;bottom=0;right=0;align=left;spacingLeft=6;rounded=1;" vertex="1" parent="JTSTbxvyxugnXNZ_vFue-5">
          <mxGeometry x="30" width="220" height="30" as="geometry">
            <mxRectangle width="220" height="30" as="alternateBounds" />
          </mxGeometry>
        </mxCell>
        <mxCell id="JTSTbxvyxugnXNZ_vFue-33" value="" style="edgeStyle=entityRelationEdgeStyle;fontSize=12;html=1;endArrow=ERoneToMany;rounded=1;exitX=0.996;exitY=0.733;exitDx=0;exitDy=0;exitPerimeter=0;entryX=-0.012;entryY=0.267;entryDx=0;entryDy=0;entryPerimeter=0;" edge="1" parent="1" source="C-vyLk0tnHw3VtMMgP7b-24" target="C-vyLk0tnHw3VtMMgP7b-3">
          <mxGeometry width="100" height="100" relative="1" as="geometry">
            <mxPoint x="300" y="440" as="sourcePoint" />
            <mxPoint x="400" y="340" as="targetPoint" />
          </mxGeometry>
        </mxCell>
        <mxCell id="JTSTbxvyxugnXNZ_vFue-34" value="" style="edgeStyle=entityRelationEdgeStyle;fontSize=12;html=1;endArrow=ERoneToMany;rounded=1;entryX=1;entryY=0.5;entryDx=0;entryDy=0;" edge="1" parent="1" source="C-vyLk0tnHw3VtMMgP7b-14" target="JTSTbxvyxugnXNZ_vFue-30">
          <mxGeometry width="100" height="100" relative="1" as="geometry">
            <mxPoint x="570" y="280" as="sourcePoint" />
            <mxPoint x="700" y="495" as="targetPoint" />
          </mxGeometry>
        </mxCell>
        <mxCell id="JTSTbxvyxugnXNZ_vFue-35" value="" style="edgeStyle=entityRelationEdgeStyle;fontSize=12;html=1;endArrow=ERoneToMany;rounded=1;exitX=0;exitY=0.5;exitDx=0;exitDy=0;entryX=1;entryY=0.5;entryDx=0;entryDy=0;" edge="1" parent="1" source="C-vyLk0tnHw3VtMMgP7b-6" target="JTSTbxvyxugnXNZ_vFue-2">
          <mxGeometry width="100" height="100" relative="1" as="geometry">
            <mxPoint x="490" y="480" as="sourcePoint" />
            <mxPoint x="538" y="706" as="targetPoint" />
            <Array as="points">
              <mxPoint x="520" y="530" />
            </Array>
          </mxGeometry>
        </mxCell>
        <mxCell id="JTSTbxvyxugnXNZ_vFue-47" value="" style="fontSize=12;html=1;endArrow=ERmandOne;startArrow=ERmandOne;rounded=1;edgeStyle=elbowEdgeStyle;exitX=0;exitY=0.5;exitDx=0;exitDy=0;" edge="1" parent="1" source="JTSTbxvyxugnXNZ_vFue-2" target="JTSTbxvyxugnXNZ_vFue-24">
          <mxGeometry width="100" height="100" relative="1" as="geometry">
            <mxPoint x="40" y="630" as="sourcePoint" />
            <mxPoint x="30" y="290" as="targetPoint" />
            <Array as="points">
              <mxPoint x="70" y="380" />
            </Array>
          </mxGeometry>
        </mxCell>
      </root>
    </mxGraphModel>
  </diagram>
</mxfile>
